<svg viewBox="895 455.9105 380 329.5123" width="5000" height="4335.688157894736" xmlns="http://www.w3.org/2000/svg"
  xmlns:xlink="http://www.w3.org/1999/xlink" preserveAspectRatio="none">
  <defs></defs>
  <style>
    .aLgOaV3zRcolors-0 {
      fill: #F6F6F6;
      fill-opacity: 1;
    }

    .aLgOaV3zRcolors-1 {
      fill: #E74C32;
      fill-opacity: 1;
    }

    .aLgOaV3zRcolors-2 {
      fill: #373737;
      fill-opacity: 1;
    }

    .aLgOaV3zRcolors-3 {
      fill: #474747;
      fill-opacity: 1;
    }

    .aLgOaV3zRcolors-4 {
      fill: #676767;
      fill-opacity: 1;
    }

    .aLgOaV3zRcolors-5 {
      fill: #C0BFBF;
      fill-opacity: 1;
    }

    .aLgOaV3zRcolors-6 {
      fill: #FF9191;
      fill-opacity: 1;
    }

    .aLgOaV3zRcolors-7 {
      fill: #000000;
      fill-opacity: 1;
    }

    .companyName {
      fill: #E74C32;
      fill-opacity: 1;
    }

    .icon3-str {
      stroke: #373737;
      stroke-opacity: 1;
    }

    .text {
      fill: #E74C32;
      fill-opacity: 1;
    }
  </style>
  <g opacity="1" transform="rotate(0 963.7584 758.3087)">
    <svg width="242.4832" height="27.1141" x="963.7584" y="758.3087" version="1.1" preserveAspectRatio="none"
      viewBox="4.32 -29.2 338 37.8">
      <g transform="matrix(1 0 0 1 0 0)" class="text">
        <path id="id-6izo4zJp15"
          d="M7.52-3L22.64-3L22.64 0L4.32 0L4.32-26.40L7.52-26.40L7.52-3Z M36.68-20.40Q41.20-20.40 43.78-17.64Q46.36-14.88 46.36-10L46.36-10Q46.36-5.12 43.78-2.36Q41.20 0.40 36.68 0.40L36.68 0.40Q32.16 0.40 29.58-2.36Q27-5.12 27-10L27-10Q27-14.88 29.58-17.64Q32.16-20.40 36.68-20.40L36.68-20.40ZM36.68-17.64Q33.64-17.64 31.92-15.60Q30.20-13.56 30.20-10L30.20-10Q30.20-6.44 31.92-4.40Q33.64-2.36 36.68-2.36L36.68-2.36Q39.72-2.36 41.44-4.40Q43.16-6.44 43.16-10L43.16-10Q43.16-13.56 41.44-15.60Q39.72-17.64 36.68-17.64L36.68-17.64Z M64.92-2.56Q67.76-2.56 69.36-1.28Q70.96 0 70.96 2.20L70.96 2.20Q70.96 4.12 69.64 5.58Q68.32 7.04 66.06 7.82Q63.80 8.60 61.08 8.60L61.08 8.60Q56.52 8.60 54.20 7.14Q51.88 5.68 51.88 3.32L51.88 3.32Q51.88 1.96 52.82 0.92Q53.76-0.12 55.40-0.56L55.40-0.56Q54.16-1.16 53.42-2.08Q52.68-3 52.68-4.24L52.68-4.24Q52.68-5.72 53.48-6.70Q54.28-7.68 55.68-8.16L55.68-8.16Q54.24-9.04 53.50-10.46Q52.76-11.88 52.76-13.64L52.76-13.64Q52.76-15.60 53.80-17.14Q54.84-18.68 56.72-19.54Q58.60-20.40 60.96-20.40L60.96-20.40Q63.20-20.40 65.04-19.60L65.04-19.60Q66.16-23.68 70.68-23.68L70.68-23.68L71.40-20.88Q67.48-20.88 66.64-18.68L66.64-18.68Q67.84-17.76 68.50-16.48Q69.16-15.20 69.16-13.64L69.16-13.64Q69.16-11.68 68.12-10.14Q67.08-8.60 65.20-7.74Q63.32-6.88 60.96-6.88L60.96-6.88Q59.20-6.88 57.88-7.24L57.88-7.24Q56.68-6.96 56.16-6.36Q55.64-5.76 55.64-4.72L55.64-4.72Q55.64-3.68 56.36-3.12Q57.08-2.56 58.28-2.56L58.28-2.56L64.92-2.56ZM60.96-17.80Q58.88-17.80 57.48-16.64Q56.08-15.48 56.08-13.64L56.08-13.64Q56.08-11.80 57.48-10.64Q58.88-9.48 60.96-9.48L60.96-9.48Q63.04-9.48 64.44-10.64Q65.84-11.80 65.84-13.64L65.84-13.64Q65.84-15.48 64.44-16.64Q63.04-17.80 60.96-17.80L60.96-17.80ZM61.44 5.92Q64.48 5.92 66.24 4.94Q68 3.96 68 2.56L68 2.56Q68 1.40 67.10 0.80Q66.20 0.20 64.04 0.20L64.04 0.20L58.68 0.20Q56.84 0.20 55.84 0.86Q54.84 1.52 54.84 2.68L54.84 2.68Q54.84 4.20 56.52 5.06Q58.20 5.92 61.44 5.92L61.44 5.92Z M107.76-20L98.36 3.36Q97.20 6.24 95.76 7.42Q94.32 8.60 92.04 8.60L92.04 8.60Q90.52 8.60 89.50 8.20Q88.48 7.80 87.64 6.92L87.64 6.92L88.76 4.20Q89.92 5.80 92 5.80L92 5.80Q93.16 5.80 94.06 5.10Q94.96 4.40 95.64 2.56L95.64 2.56L96.68-0.04L88.32-20L91.96-20L96.96-6.96L98.20-3.40L99.64-7.36L104.32-20L107.76-20Z M121.80-20.40Q126.32-20.40 128.90-17.64Q131.48-14.88 131.48-10L131.48-10Q131.48-5.12 128.90-2.36Q126.32 0.40 121.80 0.40L121.80 0.40Q117.28 0.40 114.70-2.36Q112.12-5.12 112.12-10L112.12-10Q112.12-14.88 114.70-17.64Q117.28-20.40 121.80-20.40L121.80-20.40ZM121.80-17.64Q118.76-17.64 117.04-15.60Q115.32-13.56 115.32-10L115.32-10Q115.32-6.44 117.04-4.40Q118.76-2.36 121.80-2.36L121.80-2.36Q124.84-2.36 126.56-4.40Q128.28-6.44 128.28-10L128.28-10Q128.28-13.56 126.56-15.60Q124.84-17.64 121.80-17.64L121.80-17.64Z M153-20L156.20-20L156.20 0L153.40 0L153.20-3.04Q151.20 0.40 146.04 0.40L146.04 0.40Q142.80 0.40 140.74-1.40Q138.68-3.20 138.68-6.92L138.68-6.92L138.68-20L141.88-20L141.88-7.76Q141.88-4.84 143.08-3.62Q144.28-2.40 146.60-2.40L146.60-2.40Q149.36-2.40 151.18-4.08Q153-5.76 153-9.12L153-9.12L153-20Z M174.28-20.40Q175.72-20.40 176.48-20L176.48-20L175.84-16.88Q174.88-17.40 173.32-17.40L173.32-17.40Q172.04-17.40 170.82-16.66Q169.60-15.92 168.82-14.42Q168.04-12.92 168.04-10.80L168.04-10.80L168.04 0L164.84 0L164.84-20L167.44-20L167.88-16.72Q169.56-20.40 174.28-20.40L174.28-20.40Z M210.84-29.20L214.04-29.20L214.04 0L211.24 0L211.04-3.48Q210.16-1.72 208.34-0.66Q206.52 0.40 204.20 0.40L204.20 0.40Q200.00 0.40 197.54-2.38Q195.08-5.16 195.08-10L195.08-10Q195.08-14.84 197.54-17.62Q200.00-20.40 204.20-20.40L204.20-20.40Q206.40-20.40 208.14-19.44Q209.88-18.48 210.84-16.88L210.84-16.88L210.84-29.20ZM204.56-2.40Q207.44-2.40 209.14-4.40Q210.84-6.40 210.84-9.76L210.84-9.76L210.84-10.24Q210.84-13.60 209.14-15.60Q207.44-17.60 204.56-17.60L204.56-17.60Q201.64-17.60 199.96-15.54Q198.28-13.48 198.28-10L198.28-10Q198.28-6.52 199.96-4.46Q201.64-2.40 204.56-2.40L204.56-2.40Z M232.12-20.40Q233.56-20.40 234.32-20L234.32-20L233.68-16.88Q232.72-17.40 231.16-17.40L231.16-17.40Q229.88-17.40 228.66-16.66Q227.44-15.92 226.66-14.42Q225.88-12.92 225.88-10.80L225.88-10.80L225.88 0L222.68 0L222.68-20L225.28-20L225.72-16.72Q227.40-20.40 232.12-20.40L232.12-20.40Z M256.72-11.04Q256.72-9.92 256.56-8.80L256.56-8.80L241.48-8.80Q241.76-5.76 243.50-4.08Q245.24-2.40 248.00-2.40L248.00-2.40Q250.20-2.40 251.66-3.16Q253.12-3.92 253.64-5.36L253.64-5.36L256.32-3.96Q255.12-1.84 253.12-0.72Q251.12 0.40 248.00 0.40L248.00 0.40Q243.48 0.40 240.90-2.36Q238.32-5.12 238.32-10L238.32-10Q238.32-14.88 240.78-17.64Q243.24-20.40 247.76-20.40L247.76-20.40Q250.56-20.40 252.60-19.16Q254.64-17.92 255.68-15.80Q256.72-13.68 256.72-11.04L256.72-11.04ZM247.76-17.60Q245.12-17.60 243.50-16.04Q241.88-14.48 241.52-11.64L241.52-11.64L253.64-11.64Q253.32-14.44 251.80-16.02Q250.28-17.60 247.76-17.60L247.76-17.60Z M280.40-2.32Q281.20-2.32 282.00-2.52L282.00-2.52L281.80 0Q280.68 0.40 279.40 0.40L279.40 0.40Q277.84 0.40 276.94-0.28Q276.04-0.96 275.80-2.56L275.80-2.56Q274.88-1.16 273.10-0.38Q271.32 0.40 269.36 0.40L269.36 0.40Q266.40 0.40 264.48-0.98Q262.56-2.36 262.56-4.96L262.56-4.96Q262.56-7.24 264.56-8.90Q266.56-10.56 270.36-11.20L270.36-11.20L275.68-12.08L275.68-13.20Q275.68-15.20 274.44-16.40Q273.20-17.60 271.00-17.60L271.00-17.60Q269.00-17.60 267.54-16.64Q266.08-15.68 265.28-13.80L265.28-13.80L262.92-15.52Q263.72-17.76 265.90-19.08Q268.08-20.40 271.00-20.40L271.00-20.40Q274.56-20.40 276.72-18.68Q278.88-16.96 278.88-13.60L278.88-13.60L278.88-3.76Q278.88-3.04 279.24-2.68Q279.60-2.32 280.40-2.32L280.40-2.32ZM269.52-2.40Q272.04-2.40 273.86-3.60Q275.68-4.80 275.68-6.72L275.68-6.72L275.68-9.48L271.20-8.64Q268.52-8.16 267.20-7.26Q265.88-6.36 265.88-4.96L265.88-4.96Q265.88-3.72 266.84-3.06Q267.80-2.40 269.52-2.40L269.52-2.40Z M311.08-20.40Q313.08-20.40 314.82-19.58Q316.56-18.76 317.64-17.04Q318.72-15.32 318.72-12.80L318.72-12.80L318.72 0L315.52 0L315.52-12.48Q315.52-15.08 314.22-16.34Q312.92-17.60 310.80-17.60L310.80-17.60Q309.20-17.60 307.86-16.82Q306.52-16.04 305.70-14.54Q304.88-13.04 304.88-10.96L304.88-10.96L304.88 0L301.68 0L301.68-12.48Q301.68-15.08 300.38-16.34Q299.08-17.60 296.96-17.60L296.96-17.60Q295.52-17.60 294.16-16.86Q292.80-16.12 291.92-14.56Q291.04-13 291.04-10.68L291.04-10.68L291.04 0L287.84 0L287.84-20L290.64-20L290.84-16.88Q291.88-18.64 293.58-19.52Q295.28-20.40 297.24-20.40L297.24-20.40Q299.44-20.40 301.30-19.40Q303.16-18.40 304.12-16.48L304.12-16.48Q305.00-18.40 307.00-19.40Q309.00-20.40 311.08-20.40L311.08-20.40Z M333.96 0.40Q331.08 0.40 328.76-0.74Q326.44-1.88 325.36-4.12L325.36-4.12L327.96-5.92Q328.64-4.16 330.32-3.28Q332.00-2.40 334.28-2.40L334.28-2.40Q336.64-2.40 337.88-3.24Q339.12-4.08 339.12-5.36L339.12-5.36Q339.12-6.52 337.96-7.22Q336.80-7.92 333.88-8.44L333.88-8.44Q331.00-8.96 329.32-9.70Q327.64-10.44 326.88-11.58Q326.12-12.72 326.12-14.40L326.12-14.40Q326.12-16.04 327.08-17.40Q328.04-18.76 329.84-19.58Q331.64-20.40 334.00-20.40L334.00-20.40Q337.20-20.40 339.14-19.22Q341.08-18.04 341.92-15.60L341.92-15.60L339.20-14Q338.56-15.92 337.26-16.76Q335.96-17.60 334.00-17.60L334.00-17.60Q332.04-17.60 330.68-16.72Q329.32-15.84 329.32-14.68L329.32-14.68Q329.32-13.36 330.50-12.64Q331.68-11.92 334.72-11.40L334.72-11.40Q338.88-10.72 340.60-9.36Q342.32-8 342.32-5.52L342.32-5.52Q342.32-3.80 341.30-2.46Q340.28-1.12 338.38-0.36Q336.48 0.40 333.96 0.40L333.96 0.40Z" />
      </g>
    </svg>
  </g>
  <g opacity="1" transform="rotate(0 895 650.2761)">
    <svg width="380" height="84.7315" x="895" y="650.2761" version="1.1" preserveAspectRatio="none"
      viewBox="0.8 -27.24 123.96 27.64">
      <g transform="matrix(1 0 0 1 0 0)" class="companyName">
        <path id="id-D6z1nYkh6"
          d="M17.64-11.24Q17.64-16.36 16.26-19.22Q14.88-22.08 12.46-22.08Q10.04-22.08 8.64-19.20Q7.24-16.32 7.24-11.16Q7.24-6 8.58-3.20Q9.92-0.40 12.44-0.40L12.44-0.40Q17.64-0.40 17.64-11.24L17.64-11.24ZM24.08-11.02Q24.08-5.52 20.84-2.56Q17.60 0.40 12.40 0.40Q7.20 0.40 4-2.54Q0.80-5.48 0.80-10.98Q0.80-16.48 4-19.68Q7.20-22.88 12.50-22.88Q17.80-22.88 20.94-19.70Q24.08-16.52 24.08-11.02Z M47.48-11.12L47.48-0.80L49.48-0.80L49.48 0L39.48 0L39.48-0.80L41.48-0.80L41.48-12Q41.48-14.84 40.64-16.04Q39.80-17.24 38.12-17.24L38.12-17.24Q35.84-17.24 34.48-14.84L34.48-14.84L34.48-0.80L36.48-0.80L36.48 0L26.48 0L26.48-0.80L28.48-0.80L28.48-17.60L26.48-17.60L26.48-18.40L34.48-18.40L34.48-16.32Q35.24-17.36 36.86-18.10Q38.48-18.84 40.36-18.84L40.36-18.84Q47.48-18.84 47.48-11.12L47.48-11.12Z M69.96-8L69.96-8L57.88-8Q58.28-0.96 63.36-0.96L63.36-0.96Q64.72-0.96 66.46-1.60Q68.20-2.24 69-3.40L69-3.40L69.56-3Q68.68-1.52 66.56-0.56Q64.44 0.40 62.34 0.40Q60.24 0.40 58.56-0.02Q56.88-0.44 55.28-1.44Q53.68-2.44 52.78-4.44Q51.88-6.44 51.88-9.28L51.88-9.28Q51.88-14.12 54.56-16.46Q57.24-18.80 61.06-18.80Q64.88-18.80 67.42-16.24Q69.96-13.68 69.96-8ZM57.84-9.24L57.84-8.80L64.36-8.80Q64.36-12.48 63.58-15.24Q62.80-18 61.08-18Q59.36-18 58.60-15.34Q57.84-12.68 57.84-9.24L57.84-9.24Z M80.88-18.40L80.88-0.80L82.88-0.80L82.88 0L72.88 0L72.88-0.80L74.88-0.80L74.88-17.60L73.28-17.60L73.28-18.40L80.88-18.40ZM81.24-23.70Q81.24-22.24 80.22-21.22Q79.20-20.20 77.74-20.20Q76.28-20.20 75.24-21.22Q74.20-22.24 74.20-23.70Q74.20-25.16 75.24-26.20Q76.28-27.24 77.74-27.24Q79.20-27.24 80.22-26.20Q81.24-25.16 81.24-23.70Z M95.68-0.80L95.68 0L85.68 0L85.68-0.80L87.68-0.80L87.68-17.60L85.68-17.60L85.68-18.40L93.68-18.40L93.68-13.64Q94.04-15.60 94.98-16.84Q95.92-18.08 97.06-18.48Q98.20-18.88 99.26-18.88Q100.32-18.88 101.30-18.50Q102.28-18.12 102.76-16.98Q103.24-15.84 102.80-14.70Q102.36-13.56 101.26-13.08Q100.16-12.60 99.24-12.96Q98.32-13.32 97.92-13.94Q97.52-14.56 97.36-15.12L97.36-15.12Q96.96-16.60 96.28-16.60L96.28-16.60Q95.52-16.60 94.60-13.98Q93.68-11.36 93.68-8.44L93.68-8.44L93.68-0.80L95.68-0.80Z M111.60-2.42Q112.48-0.40 114.64-0.40Q116.80-0.40 117.72-2.44Q118.64-4.48 118.64-9.18Q118.64-13.88 117.72-15.94Q116.80-18 114.64-18Q112.48-18 111.60-15.94Q110.72-13.88 110.72-9.16Q110.72-4.44 111.60-2.42ZM114.56 0.40Q110.76 0.40 107.68-2.08Q104.60-4.56 104.60-9.12L104.60-9.12Q104.60-11.56 105.50-13.48Q106.40-15.40 107.90-16.52Q109.40-17.64 111.12-18.22Q112.84-18.80 114.64-18.80Q116.44-18.80 118.18-18.22Q119.92-17.64 121.42-16.52Q122.92-15.40 123.84-13.48Q124.76-11.56 124.76-9.16Q124.76-6.76 123.84-4.88Q122.92-3 121.40-1.88L121.40-1.88Q118.36 0.40 114.56 0.40Z" />
      </g>
    </svg>
  </g>
  <g opacity="1" transform="rotate(0 1008.9999 455.9105)">
    <svg width="152.0001" height="151.9999" x="1008.9999" y="455.9105" version="1.1" preserveAspectRatio="none"
      viewBox="19.97668838500977 19.97668838500977 160.046630859375 160.046630859375">
      <g transform="matrix(1 0 0 1 0 0)">
        <g>
          <path d="M121.7 23c42.5 12 67.3 56.2 55.3 98.7S120.8 189 78.3 177 11 120.8 23 78.3 79.2 11 121.7 23z"
            data-color="1" class="aLgOaV3zRcolors-0"></path>
          <path
            d="M155.1 76.8c-13.3-12.6-27.5-11.6-37.1-8.5-10.2 3.3-17.2 9.5-17.5 9.7-.4.3-.6.8-.6 1.2v31.1c-1.9-.7-3.8-.3-5.3-.1-1.8.3-2.9.5-3.8-.3-.6-.6-.8-.9-.8-1.1 0-.2.3-.5.5-.6.8-.5 1-1.5.5-2.3-.5-.7-1.4-1-2.2-.5-.2.1-1.9 1.2-2.1 3.1-.1.9.2 2.4 1.9 3.9 2.1 1.8 4.6 1.4 6.5 1.1 2.4-.4 3.8-.6 5.3 1 .6.7 1.7.7 2.3.1.2-.1.3-.3.4-.5 1.7-.9 3.3-1.2 5-.9l.5.1c2 .4 5.1.9 7.1-1.2.6-.7 1.4-2.3 1.2-3.8-.2-1.1-.8-2-1.8-2.5-.8-.4-1.8-.1-2.3.7-.4.8-.1 1.8.7 2.3.1 0 .1.1.1.1.1.2-.1.8-.3 1.1-.8.8-2.6.5-4.1.2l-.5-.1c-1.8-.3-3.6-.1-5.4.5V80c1.8-1.5 7.8-6 15.8-8.6 12.6-4.1 24-1.5 33.8 7.8.7.6 1.7.6 2.3 0 .6-.7.6-1.7-.1-2.4z"
            data-color="2" class="aLgOaV3zRcolors-1"></path>
          <path
            d="M91.2 79.3c-.4 0-.9-.2-1.2-.5-.1-.1-4.6-4.6-12.3-7.1-10.3-3.3-21.1-1.6-32.1 5.2-.8.5-1.8.2-2.3-.5-.5-.8-.2-1.8.5-2.3 14.8-9.2 27.2-8 35-5.5 8.4 2.8 13.3 7.7 13.5 7.9.6.7.6 1.7 0 2.3-.2.4-.6.5-1.1.5z"
            data-color="2" class="aLgOaV3zRcolors-1"></path>
          <path
            d="M123.1 140.3c-1.2-1.9-1.4-4-.6-6 .6-1.4-1.7-2-2.3-.6-.4.9-.6 2-.6 3h-.3c-6 .1-7.6-7.6-12.8-8.9-1.9-.4-3.7.4-4.8 1.8-1.1-1.4-3-2.3-4.8-1.8-2.3.5-3.7 2.4-5.2 4.1-2 2.3-4.7 4.1-7.9 4-.2 0-.3 0-.5.1-.1-.8-.3-1.6-.6-2.3-.6-1.4-2.8-.8-2.3.6.8 2.1.6 4.2-.6 6-.8 1.3 1.2 2.5 2 1.2.4-.5.6-1.1.9-1.7h.1c.1.1.3.1.5.1 4.1.3 7.3 4.7 10.7 6.5 1.1.6 2.3 1.2 3.5.8 1-.3 1.7-1.1 2.8-1.3 1-.3 2.2-.3 3.2 0 .9.3 1.6 1 2.5 1.2 1.3.3 2.3-.1 3.5-.7 3.5-1.9 6.6-6 10.8-6.5.2.5.5 1.1.8 1.6.8 1.3 2.8.1 2-1.2zM92 134.9c1.4-1.2 2.3-2.9 3.8-4.1 1.1-.8 2.4-1.3 3.6-.4.8.7 1.3 1.8.9 2.9-.3 1 .6 1.6 1.4 1.4.8.1 1.7-.5 1.4-1.4-.8-2.5 2.1-4.1 4.1-2.8 1.7 1.1 2.8 3 4.2 4.4.8.8 1.8 1.6 2.7 2.3-8.5-.1-17.1-.2-25.6.1 1.3-.7 2.5-1.5 3.5-2.4zm16.3 9.5c-1.4.6-1.9.2-3.1-.4-1.3-.6-2.8-.8-4.3-.6-1.1.1-2.1.6-3.1.9-2.4.8-3.7-.7-5.5-2.1-1.1-.9-2.3-1.8-3.6-2.7 8.8-.2 17.6-.1 26.4 0-1.3.8-2.6 1.8-3.8 2.7-1 .8-1.9 1.7-3 2.2z"
            data-color="2" class="aLgOaV3zRcolors-1"></path>
          <path
            d="M101.1 125.1c-1.5 0-2.7-1.4-2.8-1.5-.2-.2-.1-.5.1-.7.2-.2.5-.1.7.1 0 0 1 1.2 2.2 1.1.6-.1 1.1-.5 1.6-1.3l.1-5.6c0-.3.2-.5.5-.5s.5.2.5.5l-.1 5.8c0 .1 0 .2-.1.2-.6 1.1-1.4 1.8-2.4 1.8-.2.1-.3.1-.3.1z"
            data-color="2" class="aLgOaV3zRcolors-1"></path>
          <path d="M84.7 47.5l1.6 3.3 3.6.5-2.6 2.6.6 3.6-3.2-1.7-3.2 1.7.6-3.6-2.6-2.6 3.6-.5 1.6-3.3z" data-color="2"
            class="aLgOaV3zRcolors-1"></path>
          <path d="M143.5 109.8l2.2 4.5 4.9.7-3.6 3.5.8 4.9-4.4-2.3-4.4 2.3.8-4.9-3.6-3.5 4.9-.7 2.4-4.5z"
            data-color="2" class="aLgOaV3zRcolors-1"></path>
          <path d="M60.1 107.9l2.2 4.5 4.9.7-3.6 3.5.8 4.9-4.4-2.3-4.4 2.3.8-4.9-3.6-3.5 4.9-.7c.2 0 2.4-4.5 2.4-4.5z"
            data-color="2" class="aLgOaV3zRcolors-1"></path>
          <path d="M118.9 41.5l.7 1.5 1.6.2-1.2 1.2.3 1.6-1.5-.8-1.5.8.3-1.6-1.2-1.2 1.6-.2c.1 0 .9-1.5.9-1.5z"
            data-color="2" class="aLgOaV3zRcolors-1"></path>
          <path d="M81.3 98.2l1 2.1 2.3.3-1.7 1.6.4 2.3-2.1-1.1-2.1 1.1.4-2.3-1.7-1.6 2.3-.3 1.2-2.1z" data-color="2"
            class="aLgOaV3zRcolors-1"></path>
          <path d="M114 56l.6 1.2 1.3.2-.9.9.2 1.3-1.2-.6-1.2.6.2-1.3-.9-.9 1.3-.2.6-1.2z" data-color="2"
            class="aLgOaV3zRcolors-1"></path>
          <path d="M140.6 144.2l.6 1.2 1.3.2-.9.9.2 1.3-1.2-.6-1.2.6.2-1.3-.9-.9 1.3-.2.6-1.2z" data-color="2"
            class="aLgOaV3zRcolors-1"></path>
          <path d="M55.8 128.8l.4.7.8.1-.6.6.1.8-.7-.4-.7.4.1-.8-.6-.6.8-.1.4-.7z" data-color="2"
            class="aLgOaV3zRcolors-1"></path>
          <path d="M54.3 55.3l.4.7.8.1-.6.6.1.8-.7-.4-.7.4.1-.8-.6-.6.8-.1.4-.7z" data-color="2"
            class="aLgOaV3zRcolors-1"></path>
          <path d="M162 122.6l.4.7.8.1-.6.6.1.8-.7-.4-.7.4.1-.8-.6-.6.8-.1.4-.7z" data-color="2"
            class="aLgOaV3zRcolors-1"></path>
          <path d="M154.6 107.2l.4.7.8.1-.6.6.1.8-.7-.4-.7.4.1-.8-.6-.6.8-.1.4-.7z" data-color="2"
            class="aLgOaV3zRcolors-1"></path>
          <path d="M154.8 119.5l.4.7.8.1-.6.6.1.8-.7-.4-.7.4.1-.8-.6-.6.8-.1.4-.7z" data-color="2"
            class="aLgOaV3zRcolors-1"></path>
          <path d="M79.4 45l.4.7.8.1-.6.6.1.8-.7-.4-.7.4.1-.8-.6-.6.8-.1.4-.7z" data-color="2"
            class="aLgOaV3zRcolors-1"></path>
          <path d="M147.9 131.8l.6 1.2 1.3.2-.9.9.2 1.3-1.2-.6-1.2.6.2-1.3-.9-.9 1.3-.2.6-1.2z" data-color="2"
            class="aLgOaV3zRcolors-1"></path>
          <path d="M129.8 50.3l.5 1 1.1.2-.8.8.2 1.1-1-.5-1 .5.2-1.1-.8-.8 1.1-.2.5-1z" data-color="2"
            class="aLgOaV3zRcolors-1"></path>
          <path
            d="M85.1 81.6c-4.3-4.1-10.7-6.5-17.6-6.5-6.9 0-13.4 2.4-17.6 6.5l-1.2 1.2 1.2 1.2c4.3 4.1 10.7 6.5 17.6 6.5 6.9 0 13.4-2.4 17.6-6.5l1.2-1.2-1.2-1.2zM73.2 79c-.4 1.8-1.9 3.2-3.8 3.2-2.1 0-3.7-1.7-3.9-3.8 2.6-.1 5.2.1 7.7.6zm-5.7 8.1c-5.3 0-10.3-1.6-13.9-4.3 2.6-2 5.9-3.3 9.5-4 .6 3.1 3.1 5.5 6.4 5.5 2.9 0 5.3-2 6.1-4.6 2.2.7 4.2 1.8 5.9 3.1-3.7 2.7-8.7 4.3-14 4.3z"
            data-color="2" class="aLgOaV3zRcolors-1"></path>
          <path
            d="M149.5 81.6c-4.3-4.1-10.7-6.5-17.6-6.5-6.9 0-13.4 2.4-17.6 6.5l-1.2 1.2 1.2 1.2c4.3 4.1 10.7 6.5 17.6 6.5 6.9 0 13.4-2.4 17.6-6.5l1.2-1.2-1.2-1.2zm-15-3.1c-.2 2.1-1.8 3.7-3.9 3.7-2 0-3.5-1.5-3.8-3.4 1.7-.3 3.4-.5 5.1-.5.8.1 1.7.1 2.6.2zm-2.7 8.6c-5.3 0-10.3-1.6-13.9-4.3 1.8-1.4 4-2.5 6.5-3.2.8 2.8 3.2 4.8 6.2 4.8 3.2 0 5.7-2.4 6.3-5.4 3.4.7 6.4 2 8.9 3.8-3.6 2.7-8.7 4.3-14 4.3z"
            data-color="2" class="aLgOaV3zRcolors-1"></path>
        </g>
      </g>
    </svg>
  </g>
</svg>
